<svg preserveAspectRatio="xMidYMid meet" data-bbox="0 0.001 742.006 131.993" xmlns="http://www.w3.org/2000/svg" viewBox="0 0.001 742.006 131.993" height="132" width="742" data-type="color" role="img" aria-label="RentSwap Logo">
    <g>
        <path fill="#282828" d="M195.958 106.5q.342.691.344 1.483c0 .527-.252 1.048-.744 1.545a2.42 2.42 0 0 1-1.775.742h-23.495q-3.555 0-4.926-3.09l-9.853-21.84h-4.699v21.84q-.001 1.26-.915 2.17c-.608.607-1.339.914-2.174.914h-22.463q-1.263-.002-2.175-.914c-.614-.607-.915-1.33-.915-2.17V33.31q.001-1.26.915-2.17.912-.912 2.175-.914h33.918q16.501 0 25.787 7.374c6.185 4.916 9.281 11.972 9.281 21.155 0 9.182-4.128 16.41-12.377 21.669l14.097 26.076zm-45.154-55.01v12.125h8.366c1.677 0 2.979-.551 3.895-1.66q1.374-1.656 1.376-4.175-.002-2.518-1.321-4.401-1.319-1.887-3.956-1.888h-8.366z" data-color="1"></path>
        <path fill="#282828" d="M265.97 86.26h-34.152v.57q.001 6.977 4.471 6.975c.842 0 1.874-.607 3.096-1.833q1.835-1.831 4.011-1.833h21.659q2.516.002 2.518 2.514c0 3.733-2.807 7.625-8.421 11.665q-8.424 6.06-22.807 6.062-14.384-.001-23.495-7.239-9.111-7.246-9.11-19.953V77.88q.001-12.045 9.282-19.622 9.279-7.569 24.354-7.57c10.05 0 17.838 2.776 23.379 8.324 5.54 5.547 8.311 12.578 8.311 21.08v3.243q-.002 1.187-.916 2.054a3.07 3.07 0 0 1-2.174.864zm-29.564-19.561c-3.059 0-4.582 1.68-4.582 5.032h9.164v-.312q-.001-4.719-4.582-4.72" data-color="1"></path>
        <path fill="#282828" d="M346.301 76.206v31.029q-.001 1.24-.915 2.14-.921.901-2.174.901h-21.886q-1.263-.002-2.175-.913c-.614-.607-.915-1.331-.915-2.17V76.427q0-6.29-5.731-6.29t-5.731 6.29v30.766q-.002 1.259-.915 2.17c-.614.613-1.339.913-2.174.913h-21.776q-1.262-.002-2.174-.913c-.614-.607-.915-1.331-.915-2.17V53.9q.002-1.26.915-2.17.912-.912 2.174-.914h20.056q1.262.002 2.174.914.913.92.915 2.17v3.776c1.984-2.06 4.681-3.733 8.078-5.033q5.095-1.941 10.946-1.943 9.396.002 15.817 6.467c4.275 4.31 6.418 10.66 6.418 19.052z" data-color="1"></path>
        <path fill="#282828" d="M391.571 70.818v12.579q-.002 5.718 4.927 5.719h10.43q1.262.001 2.174.913.913.92.915 2.17v14.981q-.002 1.26-.915 2.17c-.608.607-1.339.914-2.174.914h-12.949q-28.647 0-28.648-24.587V70.812h-9.054q-1.263-.002-2.175-.913c-.614-.607-.915-1.33-.915-2.17V53.894q.001-1.26.915-2.17.912-.912 2.175-.914h9.054V33.052q.001-1.197.915-2.072a3.03 3.03 0 0 1 2.174-.87h20.056c.841 0 1.566.294 2.174.87.608.582.915 1.27.915 2.072V50.81h14.441q1.263.002 2.175.914.913.92.915 2.17v13.835q-.002 1.26-.915 2.17c-.608.606-1.339.913-2.175.913h-14.441z" data-color="1"></path>
        <path fill="#282828" d="M427.376 37.171c6.456-4.713 14.932-7.067 25.442-7.067s19.097 2.531 25.786 7.6c6.683 5.07 10.025 10.36 10.025 15.883 0 .68-.252 1.269-.743 1.76q-.745.735-1.665.735h-22.918q-2.633 0-4.815-1.839c-1.45-1.226-3.403-1.839-5.842-1.839q-5.502-.001-5.503 3.096 0 1.654 2.69 2.758t10.025 1.986c11.382 1.404 19.502 3.96 24.348 7.675 4.853 3.72 7.279 9.348 7.279 16.894s-3.575 13.694-10.712 18.444q-10.718 7.125-28.022 7.123-17.305 0-27.156-7.025c-6.573-4.683-9.853-10.39-9.853-17.108 0-.68.246-1.263.743-1.76a2.44 2.44 0 0 1 1.776-.735h21.775q2.404.001 5.325 2.164c1.947 1.44 4.644 2.164 8.078 2.164q8.595.001 8.593-3.096 0-1.986-3.096-3.034-3.094-1.048-11.689-2.152c-19.711-2.5-29.564-10.604-29.564-24.298q-.001-11.264 9.681-18.335z" data-color="1"></path>
        <path fill="#282828" d="M539.851 50.804h10.657q3.094-.002 3.894 2.746l7.451 23.784 6.99-23.784c.535-1.833 1.837-2.746 3.895-2.746h17.647q1.144.002 1.947.803.804.8.805 1.6c0 .533-.037.956-.117 1.257l-16.732 52.949q-.92 2.859-3.784 2.857h-15.356q-2.863.002-3.784-2.857l-8.138-23.103-8.25 23.103q-.92 2.859-3.784 2.857h-15.356q-2.863.002-3.784-2.857l-16.732-52.95c-.073-.306-.116-.723-.116-1.256s.264-1.067.804-1.6a2.66 2.66 0 0 1 1.947-.803h17.648q3.094-.002 3.894 2.746l6.99 23.784 7.451-23.784q.801-2.748 3.894-2.746z" data-color="1"></path>
        <path fill="#282828" d="M599.445 93.02c0-9.826 8.366-16.127 25.099-18.892l12.149-1.857c0-2.182-.19-3.66-.571-4.42q-.572-1.147-2.69-1.146-2.12-.002-4.183 1.698c-1.376 1.134-2.678 1.698-3.895 1.698H605.87c-1.683 0-2.518-.81-2.518-2.428q-.001-2.426 1.775-5.192c1.186-1.845 2.905-3.665 5.16-5.474 2.254-1.802 5.424-3.31 9.508-4.511 4.085-1.202 8.655-1.808 13.692-1.808q15.36-.002 23.034 6.295 7.677 6.298 7.678 17.985v32.261q-.002 1.24-.915 2.14-.921.9-2.174.901h-20.055q-1.263 0-2.175-.975c-.614-.644-.915-1.416-.915-2.311v-3.402q-5.39 6.797-15.7 6.798-10.312.001-16.56-4.971-6.247-4.965-6.247-12.395zm30.135.442c4.963 0 7.451-2.74 7.451-8.227l-6.763 1.374q-5.041 1.056-5.043 3.898c0 .846.381 1.545 1.149 2.109.762.564 1.837.846 3.206.846" data-color="1"></path>
        <path fill="#282828" d="M742 76.225v8.735q0 12.385-6.874 18.904t-16.787 6.522q-9.912.001-15.872-5.376v23.778q-.002 1.306-.915 2.256-.922.948-2.175.95h-21.198q-1.262-.002-2.174-.914c-.614-.613-.915-1.336-.915-2.169V53.887q.001-1.26.915-2.17.912-.911 2.174-.913h19.484q1.263 0 2.175.975.913.975.915 2.317v3.653q5.962-7.061 16.843-7.061 10.883.002 17.647 6.246 6.763 6.243 6.763 19.29zm-39.533.913v7.625q.34 5.158 5.731 5.156 5.73 0 5.731-5.977v-6.798q0-5.977-5.731-5.977t-5.731 5.977z" data-color="1"></path>
        <path fill="#282828" d="M83.937 75.85a4.815 4.815 0 0 0-4.815 4.807c0 2.648 2.162 4.805 4.815 4.805a4.815 4.815 0 0 0 4.816-4.806c0-2.648-2.162-4.805-4.816-4.805" data-color="1"></path>
        <path fill="#282828" d="M95.83 48.77 10.454 73.19c-7.519 2.152-7.519 12.781 0 14.933l85.374 24.421c4.976 1.422 9.926-2.305 9.926-7.466V56.229c0-5.161-4.95-8.888-9.926-7.466zM77.511 98.285c-6.658 0-12.543-3.74-15.553-9.618l-5.786-.037a1.6 1.6 0 0 1-1.136-.472l-2.076-2.072-2.113 2.11c-.326.324-.768.49-1.229.465-.46-.03-.89-.245-1.167-.607L46.93 86.13l-2.617 2.164c-.596.49-1.456.49-2.045 0L39.65 86.13l-1.523 1.92a1.6 1.6 0 0 1-1.26.606h-3.212a1.6 1.6 0 0 1-1.136-.466l-6.425-6.412a1.603 1.603 0 0 1 0-2.268l6.425-6.412c.3-.3.712-.472 1.136-.472h28.139a17.67 17.67 0 0 1 15.724-9.617c9.742 0 17.666 7.907 17.666 17.63 0 9.721-7.924 17.629-17.666 17.629z" data-color="1"></path>
        <path fill="#282828" d="M21.818 27.388a4.815 4.815 0 0 0-4.816 4.806c0 2.648 2.163 4.806 4.816 4.806s4.816-2.158 4.816-4.806-2.162-4.806-4.816-4.806" data-color="1"></path>
        <path fill="#282828" d="M95.3 24.728 9.927.307C4.951-1.116 0 2.61 0 7.773V56.62c0 5.162 4.95 8.889 9.926 7.467l85.375-24.422c7.518-2.151 7.518-12.78 0-14.932zm-15.632 8.6-6.425 6.412c-.301.3-.712.472-1.136.472h-28.14a17.67 17.67 0 0 1-15.724 9.618c-9.742 0-17.666-7.908-17.666-17.63s7.924-17.63 17.666-17.63c6.659 0 12.543 3.74 15.553 9.618l5.786.037c.424 0 .835.166 1.136.472l2.077 2.072 2.113-2.109c.325-.325.767-.49 1.228-.465.46.03.89.245 1.167.606l1.524 1.925 2.616-2.164a1.606 1.606 0 0 1 2.046 0l2.616 2.164 1.524-1.918a1.6 1.6 0 0 1 1.259-.607H72.1c.424 0 .836.165 1.137.465l6.425 6.412a1.603 1.603 0 0 1 0 2.268z" data-color="1"></path>
    </g>
</svg>